<?xml version="1.0" standalone="no"?>
<!DOCTYPE svg PUBLIC "-//W3C//DTD SVG 20010904//EN"
 "http://www.w3.org/TR/2001/REC-SVG-20010904/DTD/svg10.dtd">
<svg version="1.0" xmlns="http://www.w3.org/2000/svg"
 width="1024.000000pt" height="1024.000000pt" viewBox="0 0 1024.000000 1024.000000"
 preserveAspectRatio="xMidYMid meet">

<g transform="translate(0.000000,1024.000000) scale(0.100000,-0.100000)"
fill="#000000" stroke="none">
<path d="M7548 8440 c-264 -46 -732 -319 -1093 -639 -97 -85 -317 -307 -388
-390 -40 -46 -81 -94 -92 -107 l-20 -23 -95 19 c-271 55 -378 64 -725 65 -213
0 -367 -5 -435 -13 -106 -13 -388 -59 -412 -66 -7 -3 -46 36 -88 86 -107 130
-356 378 -490 489 -393 326 -836 565 -1071 577 -107 5 -143 -6 -208 -64 -118
-106 -247 -440 -330 -851 -73 -361 -99 -706 -82 -1096 6 -133 18 -298 26 -367
8 -69 18 -150 21 -182 l7 -56 -62 -74 c-181 -213 -302 -468 -347 -728 -56
-326 72 -768 341 -1170 137 -205 230 -317 439 -525 334 -333 695 -598 1121
-822 587 -309 1101 -462 1548 -463 821 -1 2013 583 2746 1346 289 300 533 676
636 979 77 228 105 490 71 681 -41 239 -164 490 -341 697 l-67 78 21 167 c87
701 27 1421 -165 1985 -61 178 -136 330 -191 384 -71 72 -170 101 -275 83z
m-4788 -203 c425 -148 986 -582 1357 -1048 l84 -106 96 23 c131 32 309 61 493
80 356 37 874 -3 1188 -93 30 -8 54 -13 56 -11 24 38 112 148 191 238 357 406
853 772 1240 915 115 43 173 48 213 18 91 -67 236 -479 301 -853 38 -219 53
-383 58 -675 6 -313 -5 -535 -38 -770 -26 -190 -26 -188 22 -238 143 -148 312
-435 343 -583 7 -29 1 -37 -116 -149 -314 -300 -675 -541 -1043 -694 -55 -23
-109 -46 -120 -51 -13 -7 47 -9 175 -6 162 3 216 8 319 30 285 61 493 150 744
318 31 21 57 35 57 29 0 -18 -51 -185 -80 -260 l-30 -78 -88 -41 c-370 -174
-731 -254 -1217 -270 l-210 -7 50 -38 c118 -88 347 -182 540 -222 106 -22 359
-22 474 -1 47 9 86 14 88 12 7 -7 -166 -193 -283 -305 -650 -621 -1571 -1088
-2328 -1182 -430 -53 -1054 117 -1691 460 -384 207 -771 494 -1060 786 -110
111 -232 245 -223 245 1 0 39 -6 83 -14 331 -58 646 -2 932 166 45 27 94 59
109 72 l27 23 -224 6 c-244 7 -374 21 -574 62 -239 48 -402 100 -596 192
l-115 55 -37 101 c-40 110 -79 239 -73 244 2 2 61 -33 131 -78 219 -140 416
-222 660 -275 96 -21 157 -27 310 -31 118 -3 186 -2 180 4 -5 5 -55 29 -110
53 -275 118 -538 278 -784 474 -111 89 -381 334 -381 346 0 5 12 42 26 82 66
182 183 371 326 524 l48 51 -19 134 c-60 406 -66 931 -15 1313 61 469 234 993
344 1048 42 21 70 18 190 -25z"/>
<path d="M2684 7862 c-31 -75 -83 -263 -109 -393 -70 -357 -82 -782 -34 -1214
6 -55 14 -105 18 -111 4 -7 37 17 86 63 286 269 534 445 846 602 96 48 181 90
188 92 10 4 8 16 -9 49 -90 176 -312 465 -478 621 -142 135 -349 279 -447 313
l-45 15 -16 -37z"/>
<path d="M7466 7875 c-75 -31 -228 -133 -331 -221 -185 -157 -400 -414 -534
-638 -35 -59 -62 -108 -60 -110 2 -2 45 -22 94 -44 340 -155 628 -350 944
-640 104 -96 91 -104 117 73 21 147 30 597 15 781 -15 177 -35 319 -68 464
-26 120 -101 360 -112 360 -3 -1 -32 -12 -65 -25z"/>
<path d="M6445 6832 c-39 -37 -151 -132 -250 -211 -219 -175 -447 -401 -527
-521 -101 -152 -160 -286 -194 -443 -17 -77 -24 -330 -11 -381 8 -29 9 -29 45
37 103 184 278 353 587 567 203 141 267 191 355 279 140 140 187 254 178 430
-4 76 -12 113 -37 176 -17 44 -41 92 -53 107 l-23 27 -70 -67z"/>
<path d="M6947 6380 c-13 -102 -118 -236 -279 -358 -51 -39 -194 -134 -317
-212 -123 -77 -249 -161 -280 -185 -57 -44 -171 -155 -159 -155 4 0 43 13 88
30 107 39 233 71 465 115 463 88 600 185 613 431 5 109 -10 173 -70 284 -51
97 -54 99 -61 50z"/>
<path d="M7695 5517 c-61 -34 -130 -39 -580 -47 -468 -7 -526 -12 -685 -58
-282 -82 -499 -232 -663 -459 -127 -176 -217 -485 -217 -751 l0 -104 53 46
c65 55 154 101 244 123 59 15 112 17 383 15 351 -3 488 9 632 54 289 91 531
282 689 545 101 169 173 412 167 569 -3 75 -4 78 -23 67z m-1066 -341 c57
-171 119 -225 308 -266 125 -27 125 -33 0 -60 -181 -40 -260 -112 -306 -279
-32 -116 -41 -115 -75 9 -45 159 -159 252 -344 278 -75 11 -61 32 35 53 161
35 228 79 278 183 18 39 39 91 45 116 13 49 20 64 26 57 2 -2 17 -43 33 -91z"/>
<path d="M2510 5474 c0 -140 60 -375 131 -516 115 -230 358 -466 580 -567 200
-90 355 -115 656 -107 375 11 516 -20 646 -143 l37 -35 0 111 c0 233 -75 482
-204 683 -61 94 -218 255 -312 320 -160 110 -348 184 -567 221 -97 17 -192 22
-467 29 -265 6 -358 12 -400 24 -30 8 -65 18 -77 22 -22 6 -23 3 -23 -42z"/>
<path d="M4940 3693 c-120 -20 -170 -56 -170 -122 0 -112 213 -286 350 -286
120 0 307 140 342 257 23 76 -25 125 -147 147 -55 10 -321 13 -375 4z"/>
</g>
</svg>
